# xmcd CD database file
#
# Track frame offsets:
#	151
#	14488
#	25838
#	40420
#	53225
#	66321
#	77840
#	88700
#	103056
#	115980
#	130768
#	145872
#	159329
#	172460
#	182008
#	194832
#	207837
#
# Disc length: 2963 seconds
#
# Revision: 0
# Processed by: cddbd v1.5.1PL0 Copyright (c) Steve Scherf et al.
# Submitted via: CDex 1.51
#
DISCID=fa0b9111
DTITLE=Guillermo Portabales - Rey de la Guarija de Salon
DYEAR=1996
DGENRE=Salsa
TTITLE0=El Carretero
TTITLE1=Cumbiamba
TTITLE2=Junto a un Cañaveral
TTITLE3=Nostalgia Guajira
TTITLE4=Tristesza Guajira
TTITLE5=Yo te Canto Puerto Rico
TTITLE6=Lamento Cubano
TTITLE7=Guateque Campesino
TTITLE8=Oye mi Son
TTITLE9=Al Vaivén de mi Carretera
TTITLE10=Voy a Santiago a Morirme
TTITLE11=Romance Guarjiro
TTITLE12=Voy a Santiago a Morirme
TTITLE13=El Amor de mi Bohio
TTITLE14=El Arroyo que Murmura
TTITLE15=Cuando Sali de Cuba
TTITLE16=Flor de Amor
EXTD=YEAR: 1996
EXTT0=
EXTT1=
EXTT2=
EXTT3=
EXTT4=
EXTT5=
EXTT6=
EXTT7=
EXTT8=
EXTT9=
EXTT10=
EXTT11=
EXTT12=
EXTT13=
EXTT14=
EXTT15=
EXTT16=
PLAYORDER=
